<?xml version="1.0" standalone="no"?><svg xmlns:xlink="http://www.w3.org/1999/xlink" xmlns="http://www.w3.org/2000/svg" viewBox="0 0 1000 444.44444444444446" preserveAspectRatio="xMaxYMax slice"><g transform="scale(1.3508949679162445)"><rect x="0" y="0" width="740.25" height="329" fill="#ffffff"/><rect x="0" y="0" width="82.25" height="82.25" fill="#ffffff"/><rect x="0" y="0" width="41.13" height="41.13" fill="#ffffff"/><path d="M 0 0 A 41.13 41.13 0 0 1 41.13 41.13 L 0 41.13" fill="#ffffff"/><rect x="41.13" y="0" width="41.13" height="41.13" fill="#0ab7e2"/><path d="M 41.13 41.13 A 41.13 41.13 0 0 1  82.26 0 L 82.26 41.13" fill="#ffffff"/><rect x="0" y="41.13" width="41.13" height="41.13" fill="#ffffff"/><path d="M 0 82.26 A 41.13 41.13 0 0 0 41.13 41.13 L 0 41.13" fill="#ffffff"/><rect x="41.13" y="41.13" width="41.13" height="41.13" fill="#ffffff"/><path d="M 41.13 41.13 A 41.13 41.13 0 0 0 82.26 82.26 L 82.26 41.13" fill="#ffffff"/><rect x="82.25" y="0" width="82.25" height="82.25" fill="#ffffff"/><rect x="82.25" y="0" width="41.13" height="41.13" fill="#29c0e6"/><polygon points="123.38,0 123.38,41.13 82.25,41.13" fill="#ffffff"/><rect x="123.38" y="0" width="41.13" height="41.13" fill="#ffffff"/><polygon points="123.38,0 164.51,41.13 123.38,41.13" fill="#ffffff"/><rect x="82.25" y="41.13" width="41.13" height="41.13" fill="#ffffff"/><polygon points="82.25,41.13 123.38,41.13 123.38,82.26" fill="#2ec2e6"/><rect x="123.38" y="41.13" width="41.13" height="41.13" fill="#ffffff"/><polygon points="123.38,41.13 164.51,41.13 123.38,82.26" fill="#2ec2e6"/><rect x="164.5" y="0" width="82.25" height="82.25" fill="#ffffff"/><rect x="164.5" y="0" width="41.13" height="41.13" fill="#ffffff"/><polygon points="205.63,0 205.63,41.13 164.5,41.13" fill="#a0e3f4"/><rect x="205.63" y="0" width="41.13" height="41.13" fill="#ffffff"/><polygon points="205.63,0 246.76,0 205.63,41.13" fill="#e9f9fc"/><rect x="164.5" y="41.13" width="41.13" height="41.13" fill="#ffffff"/><polygon points="164.5,41.13 205.63,41.13 205.63,82.26" fill="#ffffff"/><rect x="205.63" y="41.13" width="41.13" height="41.13" fill="#ffffff"/><polygon points="205.63,41.13 246.76,82.26 205.63,82.26" fill="#f0fafd"/><rect x="246.75" y="0" width="82.25" height="82.25" fill="#ffffff"/><rect x="246.75" y="0" width="41.13" height="41.13" fill="#ffffff"/><circle cx="267.315" cy="20.565" r="20.565" fill="#14bae3"/><rect x="287.88" y="0" width="41.13" height="41.13" fill="#8fdef2"/><rect x="287.88" y="0" width="41.13" height="41.13" fill="#f0fbfd"/><rect x="246.75" y="41.13" width="41.13" height="41.13" fill="#ffffff"/><circle cx="267.315" cy="61.69500000000001" r="20.565" fill="#ffffff"/><rect x="287.88" y="41.13" width="41.13" height="41.13" fill="#ffffff"/><rect x="287.88" y="41.13" width="41.13" height="41.13" fill="#ffffff"/><rect x="329" y="0" width="82.25" height="82.25" fill="#d7f3fa"/><polygon points="411.25,0 411.25,82.25 329,82.25" fill="#ffffff"/><rect x="411.25" y="0" width="82.25" height="82.25" fill="#ffffff"/><rect x="411.25" y="0" width="41.13" height="41.13" fill="#ffffff"/><polygon points="452.38,0 452.38,41.13 411.25,41.13" fill="#7dd9f0"/><rect x="452.38" y="0" width="41.13" height="41.13" fill="#58ceeb"/><polygon points="452.38,0 493.51,0 452.38,41.13" fill="#ffffff"/><rect x="411.25" y="41.13" width="41.13" height="41.13" fill="#ffffff"/><polygon points="411.25,41.13 452.38,41.13 452.38,82.26" fill="#afe7f6"/><rect x="452.38" y="41.13" width="41.13" height="41.13" fill="#ffffff"/><polygon points="452.38,41.13 493.51,82.26 452.38,82.26" fill="#ffffff"/><rect x="493.5" y="0" width="82.25" height="82.25" fill="#ffffff"/><rect x="493.5" y="0" width="41.13" height="41.13" fill="#49c9ea"/><polygon points="534.63,0 534.63,41.13 493.5,41.13" fill="#ffffff"/><rect x="534.63" y="0" width="41.13" height="41.13" fill="#2dc1e6"/><polygon points="534.63,0 575.76,41.13 534.63,41.13" fill="#a8e5f5"/><rect x="493.5" y="41.13" width="41.13" height="41.13" fill="#ffffff"/><polygon points="493.5,41.13 534.63,41.13 534.63,82.26" fill="#29c0e6"/><rect x="534.63" y="41.13" width="41.13" height="41.13" fill="#40c7e9"/><polygon points="534.63,41.13 575.76,41.13 534.63,82.26" fill="#ffffff"/><rect x="575.75" y="0" width="82.25" height="82.25" fill="#2fc2e7"/><polygon points="575.75,0 658,0 575.75,82.25" fill="#ffffff"/><rect x="658" y="0" width="82.25" height="82.25" fill="#c6eef8"/><polygon points="658,0 740.25,82.25 658,82.25" fill="#72d5ee"/><rect x="0" y="82.25" width="82.25" height="82.25" fill="#ffffff"/><rect x="0" y="82.25" width="41.13" height="41.13" fill="#ffffff"/><path d="M 0 123.38 A 41.13 41.13 0 0 1  41.13 82.25 L 41.13 123.38" fill="#ffffff"/><rect x="41.13" y="82.25" width="41.13" height="41.13" fill="#cff1f9"/><path d="M 41.13 82.25 A 41.13 41.13 0 0 1 82.26 123.38 L 41.13 123.38" fill="#ffffff"/><rect x="0" y="123.38" width="41.13" height="41.13" fill="#13b9e3"/><path d="M 0 123.38 A 41.13 41.13 0 0 0 41.13 164.51 L 41.13 123.38" fill="#ffffff"/><rect x="41.13" y="123.38" width="41.13" height="41.13" fill="#c9eff9"/><path d="M 41.13 164.51 A 41.13 41.13 0 0 0 82.26 123.38 L 41.13 123.38" fill="#6cd4ee"/><rect x="82.25" y="82.25" width="82.25" height="82.25" fill="#96e0f3"/><polygon points="82.25,82.25 164.5,82.25 164.5,164.5" fill="#ffffff"/><rect x="164.5" y="82.25" width="82.25" height="82.25" fill="#ffffff"/><path d="M 164.5 164.5 A 82.25 82.25 0 0 0 246.75 82.25 L 164.5 82.25" fill="#ffffff"/><rect x="246.75" y="82.25" width="82.25" height="82.25" fill="#f8fdfe"/><path d="M 246.75 164.5 A 82.25 82.25 0 0 0 329 82.25 L 246.75 82.25" fill="#ffffff"/><rect x="329" y="82.25" width="82.25" height="82.25" fill="#ffffff"/><rect x="329" y="82.25" width="41.13" height="41.13" fill="#c0edf8"/><polygon points="370.13,82.25 370.13,123.38 329,123.38" fill="#13bae3"/><rect x="370.13" y="82.25" width="41.13" height="41.13" fill="#03b5e1"/><polygon points="370.13,82.25 411.26,82.25 370.13,123.38" fill="#ffffff"/><rect x="329" y="123.38" width="41.13" height="41.13" fill="#ffffff"/><polygon points="329,123.38 370.13,123.38 370.13,164.51" fill="#aae6f5"/><rect x="370.13" y="123.38" width="41.13" height="41.13" fill="#ffffff"/><polygon points="370.13,123.38 411.26,164.51 370.13,164.51" fill="#1fbde5"/><rect x="411.25" y="82.25" width="82.25" height="82.25" fill="#ffffff"/><rect x="411.25" y="82.25" width="82.25" height="82.25" fill="#ffffff"/><rect x="493.5" y="82.25" width="82.25" height="82.25" fill="#dcf5fb"/><rect x="493.5" y="82.25" width="82.25" height="82.25" fill="#ffffff"/><rect x="575.75" y="82.25" width="82.25" height="82.25" fill="#31c3e7"/><rect x="575.75" y="82.25" width="82.25" height="82.25" fill="#12b9e3"/><rect x="658" y="82.25" width="82.25" height="82.25" fill="#ffffff"/><rect x="658" y="82.25" width="41.13" height="41.13" fill="#ffffff"/><path d="M 658 123.38 A 41.13 41.13 0 0 0 699.13 82.25 L 658 82.25" fill="#ffffff"/><rect x="699.13" y="82.25" width="41.13" height="41.13" fill="#ffffff"/><path d="M 699.13 82.25 A 41.13 41.13 0 0 0 740.26 123.38 L 740.26 82.25" fill="#ffffff"/><rect x="658" y="123.38" width="41.13" height="41.13" fill="#ffffff"/><path d="M 658 123.38 A 41.13 41.13 0 0 1 699.13 164.51 L 658 164.51" fill="#ffffff"/><rect x="699.13" y="123.38" width="41.13" height="41.13" fill="#ffffff"/><path d="M 699.13 164.51 A 41.13 41.13 0 0 1  740.26 123.38 L 740.26 164.51" fill="#29c0e6"/><rect x="0" y="164.5" width="82.25" height="82.25" fill="#ffffff"/><rect x="0" y="164.5" width="41.13" height="41.13" fill="#a1e3f4"/><polygon points="41.13,164.5 41.13,205.63 0,205.63" fill="#72d5ee"/><rect x="41.13" y="164.5" width="41.13" height="41.13" fill="#ffffff"/><polygon points="41.13,164.5 82.26,205.63 41.13,205.63" fill="#e6f8fc"/><rect x="0" y="205.63" width="41.13" height="41.13" fill="#ffffff"/><polygon points="0,205.63 41.13,205.63 0,246.76" fill="#ffffff"/><rect x="41.13" y="205.63" width="41.13" height="41.13" fill="#ffffff"/><polygon points="41.13,205.63 82.26,205.63 82.26,246.76" fill="#a1e3f4"/><rect x="82.25" y="164.5" width="82.25" height="82.25" fill="#ffffff"/><rect x="82.25" y="164.5" width="82.25" height="82.25" fill="#cbf0f9"/><rect x="164.5" y="164.5" width="82.25" height="82.25" fill="#ffffff"/><polygon points="164.5,164.5 246.75,246.75 164.5,246.75" fill="#62d1ed"/><rect x="246.75" y="164.5" width="82.25" height="82.25" fill="#f6fcfe"/><polygon points="246.75,164.5 329,164.5 329,246.75" fill="#3ac5e8"/><rect x="329" y="164.5" width="82.25" height="82.25" fill="#14bae3"/><polygon points="329,164.5 411.25,246.75 329,246.75" fill="#f2fbfd"/><rect x="411.25" y="164.5" width="82.25" height="82.25" fill="#ffffff"/><path d="M 411.25 164.5 A 82.25 82.25 0 0 1 493.5 246.75 L 411.25 246.75" fill="#f8fdfe"/><rect x="493.5" y="164.5" width="82.25" height="82.25" fill="#ffffff"/><rect x="493.5" y="164.5" width="41.13" height="41.13" fill="#2ec2e6"/><path d="M 493.5 205.63 A 41.13 41.13 0 0 1  534.63 164.5 L 534.63 205.63" fill="#ffffff"/><rect x="534.63" y="164.5" width="41.13" height="41.13" fill="#81daf0"/><path d="M 534.63 164.5 A 41.13 41.13 0 0 1 575.76 205.63 L 534.63 205.63" fill="#4acaea"/><rect x="493.5" y="205.63" width="41.13" height="41.13" fill="#ffffff"/><path d="M 493.5 205.63 A 41.13 41.13 0 0 0 534.63 246.76 L 534.63 205.63" fill="#c4eef8"/><rect x="534.63" y="205.63" width="41.13" height="41.13" fill="#ffffff"/><path d="M 534.63 246.76 A 41.13 41.13 0 0 0 575.76 205.63 L 534.63 205.63" fill="#83dbf0"/><rect x="575.75" y="164.5" width="82.25" height="82.25" fill="#ffffff"/><rect x="575.75" y="164.5" width="41.13" height="41.13" fill="#ffffff"/><polygon points="616.88,164.5 616.88,205.63 575.75,205.63" fill="#ffffff"/><rect x="616.88" y="164.5" width="41.13" height="41.13" fill="#ffffff"/><polygon points="616.88,164.5 658.01,205.63 616.88,205.63" fill="#ffffff"/><rect x="575.75" y="205.63" width="41.13" height="41.13" fill="#c4eef8"/><polygon points="575.75,205.63 616.88,205.63 616.88,246.76" fill="#71d5ee"/><rect x="616.88" y="205.63" width="41.13" height="41.13" fill="#ffffff"/><polygon points="616.88,205.63 658.01,205.63 616.88,246.76" fill="#ffffff"/><rect x="658" y="164.5" width="82.25" height="82.25" fill="#85dbf1"/><polygon points="740.25,164.5 740.25,246.75 658,246.75" fill="#ffffff"/><rect x="0" y="246.75" width="82.25" height="82.25" fill="#ffffff"/><rect x="0" y="246.75" width="41.13" height="41.13" fill="#f6fcfe"/><path d="M 0 287.88 A 41.13 41.13 0 0 1  41.13 246.75 L 41.13 287.88" fill="#48c9e9"/><rect x="41.13" y="246.75" width="41.13" height="41.13" fill="#ffffff"/><path d="M 41.13 246.75 A 41.13 41.13 0 0 1 82.26 287.88 L 41.13 287.88" fill="#daf4fb"/><rect x="0" y="287.88" width="41.13" height="41.13" fill="#f5fcfe"/><path d="M 0 287.88 A 41.13 41.13 0 0 0 41.13 329.01 L 41.13 287.88" fill="#30c2e7"/><rect x="41.13" y="287.88" width="41.13" height="41.13" fill="#ffffff"/><path d="M 41.13 329.01 A 41.13 41.13 0 0 0 82.26 287.88 L 41.13 287.88" fill="#c2edf8"/><rect x="82.25" y="246.75" width="82.25" height="82.25" fill="#cbf0f9"/><polygon points="82.25,246.75 164.5,246.75 164.5,329" fill="#ffffff"/><rect x="164.5" y="246.75" width="82.25" height="82.25" fill="#ffffff"/><rect x="164.5" y="246.75" width="41.13" height="41.13" fill="#5dcfec"/><polygon points="205.63,246.75 205.63,287.88 164.5,287.88" fill="#bcebf7"/><rect x="205.63" y="246.75" width="41.13" height="41.13" fill="#20bde5"/><polygon points="205.63,246.75 246.76,287.88 205.63,287.88" fill="#63d1ed"/><rect x="164.5" y="287.88" width="41.13" height="41.13" fill="#76d7ef"/><polygon points="164.5,287.88 205.63,287.88 164.5,329.01" fill="#eefafd"/><rect x="205.63" y="287.88" width="41.13" height="41.13" fill="#a4e4f4"/><polygon points="205.63,287.88 246.76,287.88 246.76,329.01" fill="#d5f3fa"/><rect x="246.75" y="246.75" width="82.25" height="82.25" fill="#ffffff"/><rect x="246.75" y="246.75" width="41.13" height="41.13" fill="#82daf0"/><circle cx="267.315" cy="267.315" r="20.565" fill="#aee7f5"/><rect x="287.88" y="246.75" width="41.13" height="41.13" fill="#4dcbea"/><rect x="287.88" y="246.75" width="41.13" height="41.13" fill="#ffffff"/><rect x="246.75" y="287.88" width="41.13" height="41.13" fill="#ffffff"/><circle cx="267.315" cy="308.445" r="20.565" fill="#ddf5fb"/><rect x="287.88" y="287.88" width="41.13" height="41.13" fill="#09b7e2"/><rect x="287.88" y="287.88" width="41.13" height="41.13" fill="#ffffff"/><rect x="329" y="246.75" width="82.25" height="82.25" fill="#ffffff"/><rect x="329" y="246.75" width="41.13" height="41.13" fill="#ffffff"/><polygon points="370.13,246.75 370.13,287.88 329,287.88" fill="#ffffff"/><rect x="370.13" y="246.75" width="41.13" height="41.13" fill="#d4f2fa"/><polygon points="370.13,246.75 411.26,287.88 370.13,287.88" fill="#cff1f9"/><rect x="329" y="287.88" width="41.13" height="41.13" fill="#ffffff"/><polygon points="329,287.88 370.13,287.88 370.13,329.01" fill="#effafd"/><rect x="370.13" y="287.88" width="41.13" height="41.13" fill="#ffffff"/><polygon points="370.13,287.88 411.26,287.88 370.13,329.01" fill="#ffffff"/><rect x="411.25" y="246.75" width="82.25" height="82.25" fill="#ffffff"/><rect x="411.25" y="246.75" width="82.25" height="82.25" fill="#ffffff"/><rect x="493.5" y="246.75" width="82.25" height="82.25" fill="#ffffff"/><polygon points="493.5,246.75 575.75,329 493.5,329" fill="#ffffff"/><rect x="575.75" y="246.75" width="82.25" height="82.25" fill="#ffffff"/><rect x="575.75" y="246.75" width="41.13" height="41.13" fill="#16bae4"/><circle cx="596.315" cy="267.315" r="20.565" fill="#1abce4"/><rect x="616.88" y="246.75" width="41.13" height="41.13" fill="#0bb7e2"/><rect x="616.88" y="246.75" width="41.13" height="41.13" fill="#53cceb"/><rect x="575.75" y="287.88" width="41.13" height="41.13" fill="#1abce4"/><circle cx="596.315" cy="308.445" r="20.565" fill="#ffffff"/><rect x="616.88" y="287.88" width="41.13" height="41.13" fill="#93dff2"/><rect x="616.88" y="287.88" width="41.13" height="41.13" fill="#ffffff"/><rect x="658" y="246.75" width="82.25" height="82.25" fill="#ffffff"/><polygon points="658,246.75 740.25,329 658,329" fill="#ffffff"/></g></svg>